<svg width="1440" height="680" viewBox="0 0 1440 680" fill="none" xmlns="http://www.w3.org/2000/svg">
<g clip-path="url(#clip0_22_711)">
<g opacity="0.5">
<path d="M146 450H0V680H146V450Z" fill="url(#paint0_linear_22_711)"/>
<path d="M327.998 534.54H182.43V680H327.998V534.54Z" fill="url(#paint1_linear_22_711)"/>
<path d="M510.427 460.822H364.859V680H510.427V460.822Z" fill="url(#paint2_linear_22_711)"/>
<path d="M692.857 518.378H547.289V680H692.857V518.378Z" fill="url(#paint3_linear_22_711)"/>
<path d="M875 450H730V680H875V450Z" fill="url(#paint4_linear_22_711)"/>
<path d="M1057.72 407.546H912.148V680H1057.72V407.546Z" fill="url(#paint5_linear_22_711)"/>
<path d="M1240.14 499.603H1094.58V680H1240.14V499.603Z" fill="url(#paint6_linear_22_711)"/>
<path d="M1440 271.602H1294.44V680H1440V271.602Z" fill="url(#paint7_linear_22_711)"/>
</g>
<path d="M1.70776 247.548L72.4279 195.822L192.808 339.336L292.061 277.226L505.219 329L632 265L816.782 203.149L977.368 109.999L1145.65 167.339L1305.59 70.1613L1437.35 49.9998C1443.45 315.792 1441.48 464.835 1441.1 730.656H1.70776V247.548Z" fill="url(#paint8_linear_22_711)"/>
<path d="M72.4276 199.967C75.4173 199.967 77.8409 198.111 77.8409 195.822C77.8409 193.533 75.4173 191.677 72.4276 191.677C69.438 191.677 67.0144 193.533 67.0144 195.822C67.0144 198.111 69.438 199.967 72.4276 199.967Z" fill="#70D4D2" fill-opacity="0.48"/>
<path d="M72.4274 203.996C66.5414 203.996 61.752 200.33 61.752 195.823C61.752 191.315 66.5414 187.647 72.4274 187.647C78.3142 187.647 83.1038 191.315 83.1038 195.823C83.1038 200.33 78.3142 203.996 72.4274 203.996ZM72.4274 188.882C67.4298 188.882 63.3637 191.995 63.3637 195.823C63.3637 199.65 67.4298 202.762 72.4274 202.762C77.4259 202.762 81.4918 199.65 81.4918 195.823C81.4918 191.995 77.4259 188.882 72.4274 188.882Z" fill="#70D4D2" fill-opacity="0.48"/>
<path d="M198.221 339.336C198.221 341.625 195.798 343.481 192.808 343.481C189.819 343.481 187.395 341.625 187.395 339.336C187.395 337.047 189.819 335.192 192.808 335.192C195.798 335.192 198.221 337.047 198.221 339.336Z" fill="#70D4D2" fill-opacity="0.48"/>
<path d="M192.808 347.51C186.921 347.51 182.132 343.843 182.132 339.336C182.132 334.829 186.921 331.163 192.808 331.163C198.694 331.163 203.484 334.829 203.484 339.336C203.484 343.843 198.694 347.51 192.808 347.51ZM192.808 332.397C187.81 332.397 183.744 335.509 183.744 339.336C183.744 343.163 187.81 346.276 192.808 346.276C197.805 346.276 201.873 343.163 201.873 339.336C201.873 335.509 197.805 332.397 192.808 332.397Z" fill="#70D4D2" fill-opacity="0.48"/>
<path d="M292.053 281.371C295.042 281.371 297.467 279.515 297.467 277.226C297.467 274.937 295.042 273.082 292.053 273.082C289.063 273.082 286.64 274.937 286.64 277.226C286.64 279.515 289.063 281.371 292.053 281.371Z" fill="#70D4D2" fill-opacity="0.48"/>
<path d="M292.053 285.4C286.167 285.4 281.377 281.734 281.377 277.226C281.377 272.719 286.167 269.053 292.053 269.053C297.94 269.053 302.729 272.719 302.729 277.226C302.729 281.733 297.94 285.4 292.053 285.4ZM292.053 270.287C287.056 270.287 282.989 273.399 282.989 277.226C282.989 281.053 287.056 284.166 292.053 284.166C297.051 284.166 301.117 281.053 301.117 277.226C301.117 273.399 297.051 270.287 292.053 270.287Z" fill="#70D4D2" fill-opacity="0.48"/>
<path d="M505.132 333.319C508.122 333.319 510.546 331.464 510.546 329.175C510.546 326.886 508.122 325.03 505.132 325.03C502.143 325.03 499.719 326.886 499.719 329.175C499.719 331.464 502.143 333.319 505.132 333.319Z" fill="#70D4D2" fill-opacity="0.48"/>
<path d="M505.132 337.349C499.247 337.349 494.456 333.682 494.456 329.175C494.456 324.668 499.247 321 505.132 321C511.019 321 515.808 324.668 515.808 329.175C515.808 333.682 511.019 337.349 505.132 337.349ZM505.132 322.234C500.134 322.234 496.068 325.348 496.068 329.175C496.068 333.002 500.134 336.115 505.132 336.115C510.13 336.115 514.196 333.002 514.196 329.175C514.196 325.348 510.13 322.234 505.132 322.234Z" fill="#70D4D2" fill-opacity="0.48"/>
<path d="M631.561 269.319C634.551 269.319 636.974 267.463 636.974 265.174C636.974 262.885 634.551 261.03 631.561 261.03C628.571 261.03 626.147 262.885 626.147 265.174C626.147 267.463 628.571 269.319 631.561 269.319Z" fill="#70D4D2" fill-opacity="0.48"/>
<path d="M631.561 273.348C625.674 273.348 620.885 269.682 620.885 265.175C620.885 260.668 625.674 257 631.561 257C637.447 257 642.236 260.668 642.236 265.175C642.236 269.682 637.447 273.348 631.561 273.348ZM631.561 258.234C626.563 258.234 622.497 261.348 622.497 265.175C622.497 269.002 626.563 272.114 631.561 272.114C636.558 272.114 640.625 269.002 640.625 265.175C640.625 261.348 636.558 258.234 631.561 258.234Z" fill="#70D4D2" fill-opacity="0.48"/>
<path d="M816.798 207.291C819.788 207.291 822.211 205.435 822.211 203.146C822.211 200.857 819.788 199.002 816.798 199.002C813.809 199.002 811.384 200.857 811.384 203.146C811.384 205.435 813.809 207.291 816.798 207.291Z" fill="#70D4D2" fill-opacity="0.48"/>
<path d="M816.799 211.32C810.911 211.32 806.121 207.653 806.121 203.146C806.121 198.64 810.911 194.973 816.799 194.973C822.685 194.973 827.474 198.64 827.474 203.146C827.474 207.653 822.685 211.32 816.799 211.32ZM816.799 196.207C811.8 196.207 807.733 199.32 807.733 203.146C807.733 206.973 811.8 210.086 816.799 210.086C821.797 210.086 825.862 206.973 825.862 203.146C825.862 199.32 821.797 196.207 816.799 196.207Z" fill="#70D4D2" fill-opacity="0.48"/>
<path d="M977.328 114.136C980.317 114.136 982.741 112.28 982.741 109.991C982.741 107.702 980.317 105.847 977.328 105.847C974.338 105.847 971.915 107.702 971.915 109.991C971.915 112.28 974.338 114.136 977.328 114.136Z" fill="#70D4D2" fill-opacity="0.48"/>
<path d="M977.329 118.166C971.442 118.166 966.651 114.498 966.651 109.991C966.651 105.484 971.442 101.817 977.329 101.817C983.216 101.817 988.004 105.484 988.004 109.991C988.004 114.498 983.216 118.166 977.329 118.166ZM977.329 103.051C972.331 103.051 968.264 106.164 968.264 109.991C968.264 113.818 972.331 116.932 977.329 116.932C982.327 116.932 986.393 113.818 986.393 109.991C986.393 106.164 982.327 103.051 977.329 103.051Z" fill="#70D4D2" fill-opacity="0.48"/>
<path d="M1151.02 167.354C1151.02 169.643 1148.6 171.498 1145.61 171.498C1142.62 171.498 1140.19 169.643 1140.19 167.354C1140.19 165.065 1142.62 163.209 1145.61 163.209C1148.6 163.209 1151.02 165.065 1151.02 167.354Z" fill="#70D4D2" fill-opacity="0.48"/>
<path d="M1145.61 175.528C1139.72 175.528 1134.93 171.861 1134.93 167.354C1134.93 162.847 1139.72 159.18 1145.61 159.18C1151.49 159.18 1156.28 162.847 1156.28 167.354C1156.28 171.861 1151.49 175.528 1145.61 175.528ZM1145.61 160.414C1140.61 160.414 1136.54 163.527 1136.54 167.354C1136.54 171.181 1140.61 174.294 1145.61 174.294C1150.6 174.294 1154.67 171.181 1154.67 167.354C1154.67 163.527 1150.6 160.414 1145.61 160.414Z" fill="#70D4D2" fill-opacity="0.48"/>
<path d="M1305.63 74.2638C1308.61 74.2638 1311.03 72.4082 1311.03 70.1192C1311.03 67.8302 1308.61 65.9746 1305.63 65.9746C1302.64 65.9746 1300.21 67.8302 1300.21 70.1192C1300.21 72.4082 1302.64 74.2638 1305.63 74.2638Z" fill="#70D4D2" fill-opacity="0.48"/>
<path d="M1305.63 78.2932C1299.75 78.2932 1294.95 74.6261 1294.95 70.1189C1294.95 65.6124 1299.75 61.9453 1305.63 61.9453C1311.52 61.9453 1316.31 65.6124 1316.31 70.1189C1316.31 74.6261 1311.52 78.2932 1305.63 78.2932ZM1305.63 63.1795C1300.62 63.1795 1296.56 66.2926 1296.56 70.1189C1296.56 73.946 1300.62 77.0592 1305.63 77.0592C1310.63 77.0592 1314.7 73.946 1314.7 70.1189C1314.7 66.2926 1310.63 63.1795 1305.63 63.1795Z" fill="#70D4D2" fill-opacity="0.48"/>
<path d="M1.70776 247.548L72.4279 195.822L192.808 339.336L292.061 277.226L505.219 328.5L631.5 265.5L816.782 203.149L977.368 110L1145.65 167.339L1305.59 70.1614L1436.79 49.5" stroke="#70D4D2" stroke-opacity="0.48" stroke-linecap="round" stroke-linejoin="round"/>
</g>
<defs>
<linearGradient id="paint0_linear_22_711" x1="73.0001" y1="454.548" x2="73.0001" y2="688.783" gradientUnits="userSpaceOnUse">
<stop offset="0.00535" stop-color="white" stop-opacity="0"/>
<stop offset="0.10175" stop-color="#F3F7FE" stop-opacity="0.13201"/>
<stop offset="0.26687" stop-color="#E0EDFD" stop-opacity="0.33365"/>
<stop offset="0.42994" stop-color="#D1E4FC" stop-opacity="0.50117"/>
<stop offset="0.58755" stop-color="#C6DDFB" stop-opacity="0.63143"/>
<stop offset="0.73819" stop-color="#BDD8FB" stop-opacity="0.72456"/>
<stop offset="0.87894" stop-color="#B8D5FB" stop-opacity="0.78072"/>
<stop offset="1" stop-color="#B7D4FB" stop-opacity="0.8"/>
</linearGradient>
<linearGradient id="paint1_linear_22_711" x1="255.214" y1="537.417" x2="255.214" y2="685.555" gradientUnits="userSpaceOnUse">
<stop offset="0.00535" stop-color="white" stop-opacity="0"/>
<stop offset="0.10175" stop-color="#F3F7FE" stop-opacity="0.13201"/>
<stop offset="0.26687" stop-color="#E0EDFD" stop-opacity="0.33365"/>
<stop offset="0.42994" stop-color="#D1E4FC" stop-opacity="0.50117"/>
<stop offset="0.58755" stop-color="#C6DDFB" stop-opacity="0.63143"/>
<stop offset="0.73819" stop-color="#BDD8FB" stop-opacity="0.72456"/>
<stop offset="0.87894" stop-color="#B8D5FB" stop-opacity="0.78072"/>
<stop offset="1" stop-color="#B7D4FB" stop-opacity="0.8"/>
</linearGradient>
<linearGradient id="paint2_linear_22_711" x1="437.643" y1="465.156" x2="437.643" y2="688.37" gradientUnits="userSpaceOnUse">
<stop offset="0.00535" stop-color="white" stop-opacity="0"/>
<stop offset="0.10175" stop-color="#F3F7FE" stop-opacity="0.13201"/>
<stop offset="0.26687" stop-color="#E0EDFD" stop-opacity="0.33365"/>
<stop offset="0.42994" stop-color="#D1E4FC" stop-opacity="0.50117"/>
<stop offset="0.58755" stop-color="#C6DDFB" stop-opacity="0.63143"/>
<stop offset="0.73819" stop-color="#BDD8FB" stop-opacity="0.72456"/>
<stop offset="0.87894" stop-color="#B8D5FB" stop-opacity="0.78072"/>
<stop offset="1" stop-color="#B7D4FB" stop-opacity="0.8"/>
</linearGradient>
<linearGradient id="paint3_linear_22_711" x1="620.073" y1="521.574" x2="620.073" y2="686.172" gradientUnits="userSpaceOnUse">
<stop offset="0.00535" stop-color="white" stop-opacity="0"/>
<stop offset="0.10175" stop-color="#F3F7FE" stop-opacity="0.13201"/>
<stop offset="0.26687" stop-color="#E0EDFD" stop-opacity="0.33365"/>
<stop offset="0.42994" stop-color="#D1E4FC" stop-opacity="0.50117"/>
<stop offset="0.58755" stop-color="#C6DDFB" stop-opacity="0.63143"/>
<stop offset="0.73819" stop-color="#BDD8FB" stop-opacity="0.72456"/>
<stop offset="0.87894" stop-color="#B8D5FB" stop-opacity="0.78072"/>
<stop offset="1" stop-color="#B7D4FB" stop-opacity="0.8"/>
</linearGradient>
<linearGradient id="paint4_linear_22_711" x1="802.496" y1="454.548" x2="802.496" y2="688.783" gradientUnits="userSpaceOnUse">
<stop offset="0.00535" stop-color="white" stop-opacity="0"/>
<stop offset="0.10175" stop-color="#F3F7FE" stop-opacity="0.13201"/>
<stop offset="0.26687" stop-color="#E0EDFD" stop-opacity="0.33365"/>
<stop offset="0.42994" stop-color="#D1E4FC" stop-opacity="0.50117"/>
<stop offset="0.58755" stop-color="#C6DDFB" stop-opacity="0.63143"/>
<stop offset="0.73819" stop-color="#BDD8FB" stop-opacity="0.72456"/>
<stop offset="0.87894" stop-color="#B8D5FB" stop-opacity="0.78072"/>
<stop offset="1" stop-color="#B7D4FB" stop-opacity="0.8"/>
</linearGradient>
<linearGradient id="paint5_linear_22_711" x1="984.932" y1="412.935" x2="984.932" y2="690.405" gradientUnits="userSpaceOnUse">
<stop offset="0.00535" stop-color="white" stop-opacity="0"/>
<stop offset="0.10175" stop-color="#F3F7FE" stop-opacity="0.13201"/>
<stop offset="0.26687" stop-color="#E0EDFD" stop-opacity="0.33365"/>
<stop offset="0.42994" stop-color="#D1E4FC" stop-opacity="0.50117"/>
<stop offset="0.58755" stop-color="#C6DDFB" stop-opacity="0.63143"/>
<stop offset="0.73819" stop-color="#BDD8FB" stop-opacity="0.72456"/>
<stop offset="0.87894" stop-color="#B8D5FB" stop-opacity="0.78072"/>
<stop offset="1" stop-color="#B7D4FB" stop-opacity="0.8"/>
</linearGradient>
<linearGradient id="paint6_linear_22_711" x1="1167.36" y1="503.17" x2="1167.36" y2="686.889" gradientUnits="userSpaceOnUse">
<stop offset="0.00535" stop-color="white" stop-opacity="0"/>
<stop offset="0.10175" stop-color="#F3F7FE" stop-opacity="0.13201"/>
<stop offset="0.26687" stop-color="#E0EDFD" stop-opacity="0.33365"/>
<stop offset="0.42994" stop-color="#D1E4FC" stop-opacity="0.50117"/>
<stop offset="0.58755" stop-color="#C6DDFB" stop-opacity="0.63143"/>
<stop offset="0.73819" stop-color="#BDD8FB" stop-opacity="0.72456"/>
<stop offset="0.87894" stop-color="#B8D5FB" stop-opacity="0.78072"/>
<stop offset="1" stop-color="#B7D4FB" stop-opacity="0.8"/>
</linearGradient>
<linearGradient id="paint7_linear_22_711" x1="1367.21" y1="279.679" x2="1367.21" y2="695.596" gradientUnits="userSpaceOnUse">
<stop offset="0.00535" stop-color="white" stop-opacity="0"/>
<stop offset="0.10175" stop-color="#F3F7FE" stop-opacity="0.13201"/>
<stop offset="0.26687" stop-color="#E0EDFD" stop-opacity="0.33365"/>
<stop offset="0.42994" stop-color="#D1E4FC" stop-opacity="0.50117"/>
<stop offset="0.58755" stop-color="#C6DDFB" stop-opacity="0.63143"/>
<stop offset="0.73819" stop-color="#BDD8FB" stop-opacity="0.72456"/>
<stop offset="0.87894" stop-color="#B8D5FB" stop-opacity="0.78072"/>
<stop offset="1" stop-color="#B7D4FB" stop-opacity="0.8"/>
</linearGradient>
<linearGradient id="paint8_linear_22_711" x1="615.515" y1="96.1168" x2="733.955" y2="776.087" gradientUnits="userSpaceOnUse">
<stop offset="0.13201" stop-color="#B7D4FB" stop-opacity="0.3"/>
<stop offset="0.1652" stop-color="#BFD8FB" stop-opacity="0.26615"/>
<stop offset="0.29819" stop-color="#DAE9FC" stop-opacity="0.1502"/>
<stop offset="0.43012" stop-color="#EEF5FE" stop-opacity="0.06686"/>
<stop offset="0.5594" stop-color="#FAFCFE" stop-opacity="0.01682"/>
<stop offset="0.68287" stop-color="white" stop-opacity="0"/>
</linearGradient>
<clipPath id="clip0_22_711">
<rect width="1440" height="680" fill="white"/>
</clipPath>
</defs>
</svg>
