<svg width="221" height="31" viewBox="0 0 221 31" fill="none" xmlns="http://www.w3.org/2000/svg">
<path d="M13.6477 11.4205C13.5568 10.5038 13.1667 9.79167 12.4773 9.28409C11.7879 8.77651 10.8523 8.52273 9.67045 8.52273C8.86742 8.52273 8.18939 8.63636 7.63636 8.86364C7.08333 9.08333 6.65909 9.39015 6.36364 9.78409C6.07576 10.178 5.93182 10.625 5.93182 11.125C5.91667 11.5417 6.00379 11.9053 6.19318 12.2159C6.39015 12.5265 6.65909 12.7955 7 13.0227C7.34091 13.2424 7.73485 13.4356 8.18182 13.6023C8.62879 13.7614 9.10606 13.8977 9.61364 14.0114L11.7045 14.5114C12.7197 14.7386 13.6515 15.0417 14.5 15.4205C15.3485 15.7992 16.0833 16.2652 16.7045 16.8182C17.3258 17.3712 17.8068 18.0227 18.1477 18.7727C18.4962 19.5227 18.6742 20.3826 18.6818 21.3523C18.6742 22.7765 18.3106 24.0114 17.5909 25.0568C16.8788 26.0947 15.8485 26.9015 14.5 27.4773C13.1591 28.0455 11.5417 28.3295 9.64773 28.3295C7.76894 28.3295 6.13258 28.0417 4.73864 27.4659C3.35227 26.8902 2.26894 26.0379 1.48864 24.9091C0.715909 23.7727 0.310606 22.3674 0.272727 20.6932H5.03409C5.08712 21.4735 5.31061 22.125 5.70455 22.6477C6.10606 23.1629 6.64015 23.553 7.30682 23.8182C7.98106 24.0758 8.74242 24.2045 9.59091 24.2045C10.4242 24.2045 11.1477 24.0833 11.7614 23.8409C12.3826 23.5985 12.8636 23.2614 13.2045 22.8295C13.5455 22.3977 13.7159 21.9015 13.7159 21.3409C13.7159 20.8182 13.5606 20.3788 13.25 20.0227C12.947 19.6667 12.5 19.3636 11.9091 19.1136C11.3258 18.8636 10.6098 18.6364 9.76136 18.4318L7.22727 17.7955C5.26515 17.3182 3.71591 16.572 2.57955 15.5568C1.44318 14.5417 0.878788 13.1742 0.886364 11.4545C0.878788 10.0455 1.25379 8.81439 2.01136 7.76136C2.77652 6.70833 3.82576 5.88636 5.15909 5.29545C6.49242 4.70454 8.00758 4.40909 9.70455 4.40909C11.4318 4.40909 12.9394 4.70454 14.2273 5.29545C15.5227 5.88636 16.5303 6.70833 17.25 7.76136C17.9697 8.81439 18.3409 10.0341 18.3636 11.4205H13.6477ZM36.3665 4.72727H41.2869V19.8409C41.2869 21.5379 40.8816 23.0227 40.071 24.2955C39.268 25.5682 38.143 26.5606 36.696 27.2727C35.2491 27.9773 33.5634 28.3295 31.6392 28.3295C29.7074 28.3295 28.018 27.9773 26.571 27.2727C25.1241 26.5606 23.9991 25.5682 23.196 24.2955C22.393 23.0227 21.9915 21.5379 21.9915 19.8409V4.72727H26.9119V19.4205C26.9119 20.3068 27.1051 21.0947 27.4915 21.7841C27.8854 22.4735 28.4384 23.0152 29.1506 23.4091C29.8627 23.803 30.6922 24 31.6392 24C32.5938 24 33.4233 23.803 34.1278 23.4091C34.84 23.0152 35.3892 22.4735 35.7756 21.7841C36.1695 21.0947 36.3665 20.3068 36.3665 19.4205V4.72727ZM45.3352 4.72727H51.4034L57.8125 20.3636H58.0852L64.4943 4.72727H70.5625V28H65.7898V12.8523H65.5966L59.5739 27.8864H56.3239L50.3011 12.7955H50.108V28H45.3352V4.72727ZM79.5369 4.72727V28H74.6165V4.72727H79.5369ZM96.2102 11.4205C96.1193 10.5038 95.7292 9.79167 95.0398 9.28409C94.3504 8.77651 93.4148 8.52273 92.233 8.52273C91.4299 8.52273 90.7519 8.63636 90.1989 8.86364C89.6458 9.08333 89.2216 9.39015 88.9261 9.78409C88.6383 10.178 88.4943 10.625 88.4943 11.125C88.4792 11.5417 88.5663 11.9053 88.7557 12.2159C88.9527 12.5265 89.2216 12.7955 89.5625 13.0227C89.9034 13.2424 90.2973 13.4356 90.7443 13.6023C91.1913 13.7614 91.6686 13.8977 92.1761 14.0114L94.267 14.5114C95.2822 14.7386 96.214 15.0417 97.0625 15.4205C97.911 15.7992 98.6458 16.2652 99.267 16.8182C99.8883 17.3712 100.369 18.0227 100.71 18.7727C101.059 19.5227 101.237 20.3826 101.244 21.3523C101.237 22.7765 100.873 24.0114 100.153 25.0568C99.4413 26.0947 98.411 26.9015 97.0625 27.4773C95.7216 28.0455 94.1042 28.3295 92.2102 28.3295C90.3314 28.3295 88.6951 28.0417 87.3011 27.4659C85.9148 26.8902 84.8314 26.0379 84.0511 24.9091C83.2784 23.7727 82.8731 22.3674 82.8352 20.6932H87.5966C87.6496 21.4735 87.8731 22.125 88.267 22.6477C88.6686 23.1629 89.2027 23.553 89.8693 23.8182C90.5436 24.0758 91.3049 24.2045 92.1534 24.2045C92.9867 24.2045 93.7102 24.0833 94.3239 23.8409C94.9451 23.5985 95.4261 23.2614 95.767 22.8295C96.108 22.3977 96.2784 21.9015 96.2784 21.3409C96.2784 20.8182 96.1231 20.3788 95.8125 20.0227C95.5095 19.6667 95.0625 19.3636 94.4716 19.1136C93.8883 18.8636 93.1723 18.6364 92.3239 18.4318L89.7898 17.7955C87.8277 17.3182 86.2784 16.572 85.142 15.5568C84.0057 14.5417 83.4413 13.1742 83.4489 11.4545C83.4413 10.0455 83.8163 8.81439 84.5739 7.76136C85.339 6.70833 86.3883 5.88636 87.7216 5.29545C89.0549 4.70454 90.5701 4.40909 92.267 4.40909C93.9943 4.40909 95.5019 4.70454 96.7898 5.29545C98.0852 5.88636 99.0928 6.70833 99.8125 7.76136C100.532 8.81439 100.903 10.0341 100.926 11.4205H96.2102ZM104.554 28V4.72727H109.474V14.3295H119.463V4.72727H124.372V28H119.463V18.3864H109.474V28H104.554ZM149.815 16.3636C149.815 18.9015 149.334 21.0606 148.372 22.8409C147.418 24.6212 146.115 25.9811 144.463 26.9205C142.819 27.8523 140.971 28.3182 138.918 28.3182C136.849 28.3182 134.993 27.8485 133.349 26.9091C131.705 25.9697 130.406 24.6098 129.452 22.8295C128.497 21.0492 128.02 18.8939 128.02 16.3636C128.02 13.8258 128.497 11.6667 129.452 9.88636C130.406 8.10606 131.705 6.75 133.349 5.81818C134.993 4.87879 136.849 4.40909 138.918 4.40909C140.971 4.40909 142.819 4.87879 144.463 5.81818C146.115 6.75 147.418 8.10606 148.372 9.88636C149.334 11.6667 149.815 13.8258 149.815 16.3636ZM144.827 16.3636C144.827 14.7197 144.58 13.3333 144.088 12.2045C143.603 11.0758 142.918 10.2197 142.031 9.63636C141.145 9.05303 140.107 8.76136 138.918 8.76136C137.728 8.76136 136.69 9.05303 135.804 9.63636C134.918 10.2197 134.228 11.0758 133.736 12.2045C133.251 13.3333 133.009 14.7197 133.009 16.3636C133.009 18.0076 133.251 19.3939 133.736 20.5227C134.228 21.6515 134.918 22.5076 135.804 23.0909C136.69 23.6742 137.728 23.9659 138.918 23.9659C140.107 23.9659 141.145 23.6742 142.031 23.0909C142.918 22.5076 143.603 21.6515 144.088 20.5227C144.58 19.3939 144.827 18.0076 144.827 16.3636Z" fill="#0A151A"/>
<path d="M167.036 0.959999C165.308 5.504 162.364 10.048 159.324 12.928C159.964 13.824 160.956 15.904 161.308 16.8C162.204 15.904 163.1 14.912 163.964 13.792V30.688H167.58V8.288C168.732 6.272 169.724 4.16 170.556 2.112L167.036 0.959999ZM181.628 26.176V19.808H188.54V16.224H181.628V10.656H189.404V7.072H182.076L183.484 5.472C181.884 4.064 178.62 2.08 176.252 0.831999L173.724 3.552C175.42 4.512 177.5 5.856 179.068 7.072H169.98V10.656H177.756V16.224H171.004V19.808H177.756V26.176H169.244V29.76H189.884V26.176H181.628ZM203.772 9.28C203.58 8.576 203.164 7.616 202.748 6.784H210.748C210.396 7.616 209.948 8.512 209.564 9.28H203.772ZM216.444 14.464C215.644 14.24 214.684 13.888 214.204 13.568C214.108 15.104 213.98 15.328 213.436 15.328H211.772C211.228 15.328 211.132 15.232 211.132 14.56V12.544H216.444V14.464ZM197.564 12.544H201.948C201.724 14.752 200.988 15.904 197.564 16.576V12.544ZM209.82 24.768H204.06V22.08H209.82V24.768ZM220.86 6.784V3.328H208.636V0.927999H204.764V3.328H192.86V6.784H198.652C199.004 7.52 199.388 8.48 199.644 9.28H193.948V30.72H197.564V17.024C198.14 17.664 198.716 18.624 198.94 19.264C203.804 18.144 204.988 16.096 205.276 12.544H207.868V14.592C207.868 17.184 208.444 18.048 211.292 18.048H213.884C215.164 18.048 215.964 17.728 216.444 16.768V26.592C216.444 27.072 216.284 27.232 215.74 27.232C215.356 27.232 214.364 27.232 213.244 27.2V19.264H200.7V29.312H204.06V27.552H211.868C212.316 28.512 212.796 29.888 212.956 30.784C215.452 30.784 217.244 30.72 218.492 30.144C219.74 29.536 220.124 28.512 220.124 26.624V9.28H213.756C214.172 8.576 214.652 7.712 215.164 6.784H220.86Z" fill="url(#paint0_linear_6_315)"/>
<defs>
<linearGradient id="paint0_linear_6_315" x1="-1" y1="-3" x2="12.1808" y2="72.7051" gradientUnits="userSpaceOnUse">
<stop stop-color="#70D4D2"/>
<stop offset="1" stop-color="#00BDB6"/>
</linearGradient>
</defs>
</svg>
