<svg width="226" height="34" viewBox="0 0 226 34" fill="none" xmlns="http://www.w3.org/2000/svg">
<path d="M0.0625 33V1H22.5625V8H8.75V13.5H21.1875V20.5H8.75V33H0.0625Z" fill="url(#paint0_linear_186_33)"/>
<path d="M34.2253 1V33H25.5378V1H34.2253Z" fill="url(#paint1_linear_186_33)"/>
<path d="M65.81 1V33H58.56L46.9975 16.1875H46.81V33H38.1225V1H45.4975L56.8725 17.75H57.1225V1H65.81Z" fill="url(#paint2_linear_186_33)"/>
<path d="M78.0119 33H68.6369L79.1994 1H91.0744L101.637 33H92.2619L85.2619 9.8125H85.0119L78.0119 33ZM76.2619 20.375H93.8869V26.875H76.2619V20.375Z" fill="url(#paint3_linear_186_33)"/>
<path d="M132.186 1V33H124.936L113.374 16.1875H113.186V33H104.499V1H111.874L123.249 17.75H123.499V1H132.186Z" fill="url(#paint4_linear_186_33)"/>
<path d="M165.951 13H157.138C157.076 12.2708 156.909 11.6094 156.638 11.0156C156.378 10.4219 156.013 9.91146 155.545 9.48438C155.086 9.04688 154.529 8.71354 153.873 8.48438C153.216 8.24479 152.472 8.125 151.638 8.125C150.18 8.125 148.946 8.47917 147.935 9.1875C146.935 9.89583 146.175 10.9115 145.654 12.2344C145.143 13.5573 144.888 15.1458 144.888 17C144.888 18.9583 145.149 20.599 145.67 21.9219C146.201 23.2344 146.966 24.224 147.966 24.8906C148.966 25.5469 150.17 25.875 151.576 25.875C152.378 25.875 153.097 25.776 153.732 25.5781C154.367 25.3698 154.92 25.0729 155.388 24.6875C155.857 24.3021 156.237 23.8385 156.529 23.2969C156.831 22.7448 157.034 22.125 157.138 21.4375L165.951 21.5C165.847 22.8542 165.466 24.2344 164.81 25.6406C164.154 27.0365 163.222 28.3281 162.013 29.5156C160.815 30.6927 159.331 31.6406 157.56 32.3594C155.789 33.0781 153.732 33.4375 151.388 33.4375C148.451 33.4375 145.815 32.8073 143.482 31.5469C141.159 30.2865 139.321 28.4323 137.966 25.9844C136.623 23.5365 135.951 20.5417 135.951 17C135.951 13.4375 136.638 10.4375 138.013 8C139.388 5.55208 141.242 3.70312 143.576 2.45312C145.909 1.19271 148.513 0.5625 151.388 0.5625C153.409 0.5625 155.268 0.838541 156.966 1.39062C158.664 1.94271 160.154 2.75 161.435 3.8125C162.716 4.86458 163.748 6.16146 164.529 7.70312C165.31 9.24479 165.784 11.0104 165.951 13Z" fill="url(#paint5_linear_186_33)"/>
<path d="M178.36 1V33H169.672V1H178.36Z" fill="url(#paint6_linear_186_33)"/>
<path d="M190.944 1V33H182.257V1H190.944Z" fill="url(#paint7_linear_186_33)"/>
<path d="M225.842 17C225.842 20.5625 225.149 23.5677 223.763 26.0156C222.378 28.4531 220.508 30.3021 218.154 31.5625C215.8 32.8125 213.175 33.4375 210.279 33.4375C207.362 33.4375 204.727 32.8073 202.373 31.5469C200.029 30.276 198.164 28.4219 196.779 25.9844C195.404 23.5365 194.717 20.5417 194.717 17C194.717 13.4375 195.404 10.4375 196.779 8C198.164 5.55208 200.029 3.70312 202.373 2.45312C204.727 1.19271 207.362 0.5625 210.279 0.5625C213.175 0.5625 215.8 1.19271 218.154 2.45312C220.508 3.70312 222.378 5.55208 223.763 8C225.149 10.4375 225.842 13.4375 225.842 17ZM216.904 17C216.904 15.0833 216.649 13.4688 216.138 12.1563C215.638 10.8333 214.894 9.83333 213.904 9.15625C212.925 8.46875 211.717 8.125 210.279 8.125C208.842 8.125 207.628 8.46875 206.638 9.15625C205.659 9.83333 204.914 10.8333 204.404 12.1563C203.904 13.4688 203.654 15.0833 203.654 17C203.654 18.9167 203.904 20.5365 204.404 21.8594C204.914 23.1719 205.659 24.1719 206.638 24.8594C207.628 25.5365 208.842 25.875 210.279 25.875C211.717 25.875 212.925 25.5365 213.904 24.8594C214.894 24.1719 215.638 23.1719 216.138 21.8594C216.649 20.5365 216.904 18.9167 216.904 17Z" fill="url(#paint8_linear_186_33)"/>
<defs>
<linearGradient id="paint0_linear_186_33" x1="0.0625" y1="0.5625" x2="9.4374" y2="64.9475" gradientUnits="userSpaceOnUse">
<stop stop-color="#008A85"/>
<stop offset="1" stop-color="#035956"/>
</linearGradient>
<linearGradient id="paint1_linear_186_33" x1="0.0625" y1="0.5625" x2="9.4374" y2="64.9475" gradientUnits="userSpaceOnUse">
<stop stop-color="#008A85"/>
<stop offset="1" stop-color="#035956"/>
</linearGradient>
<linearGradient id="paint2_linear_186_33" x1="0.0625" y1="0.5625" x2="9.4374" y2="64.9475" gradientUnits="userSpaceOnUse">
<stop stop-color="#008A85"/>
<stop offset="1" stop-color="#035956"/>
</linearGradient>
<linearGradient id="paint3_linear_186_33" x1="0.0625" y1="0.5625" x2="9.4374" y2="64.9475" gradientUnits="userSpaceOnUse">
<stop stop-color="#008A85"/>
<stop offset="1" stop-color="#035956"/>
</linearGradient>
<linearGradient id="paint4_linear_186_33" x1="0.0625" y1="0.5625" x2="9.4374" y2="64.9475" gradientUnits="userSpaceOnUse">
<stop stop-color="#008A85"/>
<stop offset="1" stop-color="#035956"/>
</linearGradient>
<linearGradient id="paint5_linear_186_33" x1="0.0625" y1="0.5625" x2="9.4374" y2="64.9475" gradientUnits="userSpaceOnUse">
<stop stop-color="#008A85"/>
<stop offset="1" stop-color="#035956"/>
</linearGradient>
<linearGradient id="paint6_linear_186_33" x1="0.0625" y1="0.5625" x2="9.4374" y2="64.9475" gradientUnits="userSpaceOnUse">
<stop stop-color="#008A85"/>
<stop offset="1" stop-color="#035956"/>
</linearGradient>
<linearGradient id="paint7_linear_186_33" x1="0.0625" y1="0.5625" x2="9.4374" y2="64.9475" gradientUnits="userSpaceOnUse">
<stop stop-color="#008A85"/>
<stop offset="1" stop-color="#035956"/>
</linearGradient>
<linearGradient id="paint8_linear_186_33" x1="0.0625" y1="0.5625" x2="9.4374" y2="64.9475" gradientUnits="userSpaceOnUse">
<stop stop-color="#008A85"/>
<stop offset="1" stop-color="#035956"/>
</linearGradient>
</defs>
</svg>
